# This file uses centimeters as units for non-parametric coordinates.

v 6.526356 -2.769600 -3.168255
v 2.867970 -2.769600 -3.168255
v 1.038776 -2.769600 -0.000001
v 2.867969 -2.769600 3.168255
v 6.526355 -2.769600 3.168255
v 8.355548 -2.769600 -0.000000
v 6.526356 5.618884 -3.168255
v 2.867970 5.618884 -3.168255
v 1.038777 5.618884 -0.000001
v 2.867969 5.618884 3.168255
v 6.526355 5.618884 3.168255
v 8.355548 5.618884 -0.000000
v 6.244300 6.552217 -2.679722
v 3.150024 6.552217 -2.679722
v 4.697162 6.610871 0.000000
v 1.602886 6.552217 0.000000
v 3.150024 6.552217 2.679722
v 6.244300 6.552217 2.679722
v 7.791438 6.552217 -0.000000
v 6.295095 6.011839 -2.767701
v 6.241689 6.277062 -2.675200
v 3.099230 6.011839 -2.767701
v 3.152635 6.277062 -2.675200
v 1.501297 6.011839 -0.000000
v 1.608108 6.277062 0.000000
v 3.099229 6.011839 2.767701
v 3.152635 6.277062 2.675200
v 6.295095 6.011839 2.767701
v 6.241689 6.277062 2.675200
v 7.893027 6.011839 0.000000
v 7.786217 6.277062 -0.000000
vt 0.375000 0.312500
vt 0.416667 0.312500
vt 0.458333 0.312500
vt 0.500000 0.312500
vt 0.541667 0.312500
vt 0.583333 0.312500
vt 0.625000 0.312500
vt 0.375000 0.688440
vt 0.416667 0.688440
vt 0.458333 0.688440
vt 0.500000 0.688440
vt 0.541667 0.688440
vt 0.583333 0.688440
vt 0.625000 0.688440
vt 0.500000 0.837500
vt 0.421875 0.979066
vt 0.546263 0.923880
vt 0.343750 0.843750
vt 0.453737 0.923880
vt 0.421875 0.708434
vt 0.407473 0.843750
vt 0.578125 0.708434
vt 0.453737 0.763620
vt 0.656250 0.843750
vt 0.546263 0.763620
vt 0.578125 0.979066
vt 0.592527 0.843750
vt 0.460938 0.911408
vt 0.539062 0.911408
vt 0.421875 0.843750
vt 0.460938 0.911408
vt 0.460938 0.776092
vt 0.421875 0.843750
vt 0.539062 0.776092
vt 0.460938 0.776092
vt 0.578125 0.843750
vt 0.539062 0.776092
vt 0.539062 0.911408
vt 0.578125 0.843750
vn 0.000000 0.000000 -1.000000
vn 0.000000 0.000000 -1.000000
vn 0.000000 0.000000 -1.000000
vn 0.000000 0.000000 -1.000000
vn -0.866025 0.000000 -0.500000
vn -0.866025 0.000000 -0.500000
vn -0.866025 0.000000 -0.500000
vn -0.866025 0.000000 -0.500000
vn -0.866026 0.000000 0.500000
vn -0.866026 0.000000 0.500000
vn -0.866026 0.000000 0.500000
vn -0.866026 0.000000 0.500000
vn -0.000000 -0.000000 1.000000
vn -0.000000 -0.000000 1.000000
vn -0.000000 -0.000000 1.000000
vn -0.000000 -0.000000 1.000000
vn 0.866025 0.000000 0.500000
vn 0.866025 0.000000 0.500000
vn 0.866025 0.000000 0.500000
vn 0.866025 0.000000 0.500000
vn 0.866026 -0.000000 -0.500000
vn 0.866026 -0.000000 -0.500000
vn 0.866026 -0.000000 -0.500000
vn 0.866026 -0.000000 -0.500000
vn 0.009476 0.999820 -0.016413
vn -0.009476 0.999820 -0.016413
vn 0.000000 1.000000 0.000000
vn -0.018952 0.999820 -0.000000
vn -0.009476 0.999820 0.016413
vn 0.009476 0.999820 0.016413
vn 0.018952 0.999820 0.000000
vn 0.671099 0.632061 -0.387459
vn 0.853197 0.171480 -0.492594
vn 0.853197 0.171480 -0.492594
vn 0.671099 0.632061 -0.387459
vn 0.000000 0.171480 -0.985188
vn 0.000000 0.632061 -0.774919
vn 0.000000 0.632061 -0.774919
vn 0.000000 0.171480 -0.985188
vn -0.853198 0.171480 -0.492594
vn -0.671099 0.632061 -0.387460
vn -0.671099 0.632061 -0.387460
vn -0.853198 0.171480 -0.492594
vn -0.853198 0.171479 0.492594
vn -0.671099 0.632061 0.387459
vn -0.671099 0.632061 0.387459
vn -0.853198 0.171479 0.492594
vn 0.000000 0.171480 0.985188
vn 0.000000 0.632061 0.774918
vn 0.000000 0.632061 0.774918
vn 0.000000 0.171480 0.985188
vn 0.853198 0.171480 0.492594
vn 0.671099 0.632061 0.387460
vn 0.671099 0.632061 0.387460
vn 0.853198 0.171480 0.492594
vn 0.000000 0.713846 -0.700303
vn 0.000000 0.713846 -0.700303
vn -0.606480 0.713846 -0.350152
vn -0.606480 0.713846 -0.350152
vn -0.606480 0.713846 0.350152
vn -0.606480 0.713846 0.350152
vn 0.000000 0.713846 0.700303
vn 0.000000 0.713846 0.700303
vn 0.606480 0.713846 0.350152
vn 0.606480 0.713845 0.350152
vn 0.606480 0.713846 -0.350151
vn 0.606480 0.713846 -0.350151
vn 0.000000 -0.016432 -0.999865
vn 0.000000 -0.016432 -0.999865
vn -0.865909 -0.016432 -0.499932
vn -0.865909 -0.016432 -0.499932
vn -0.865909 -0.016432 0.499933
vn -0.865909 -0.016432 0.499933
vn 0.000000 -0.016432 0.999865
vn 0.000000 -0.016432 0.999865
vn 0.865909 -0.016432 0.499932
vn 0.865909 -0.016432 0.499932
vn 0.865909 -0.016432 -0.499933
vn 0.865909 -0.016432 -0.499933
f 1/1/1 2/2/2 8/9/3 7/8/4
f 2/2/5 3/3/6 9/10/7 8/9/8
f 3/3/9 4/4/10 10/11/11 9/10/12
f 4/4/13 5/5/14 11/12/15 10/11/16
f 5/5/17 6/6/18 12/13/19 11/12/20
f 6/6/21 1/7/22 7/14/23 12/13/24
f 13/29/25 14/31/26 15/15/27
f 14/31/26 16/33/28 15/15/27
f 16/33/28 17/35/29 15/15/27
f 17/35/29 18/37/30 15/15/27
f 18/37/30 19/39/31 15/15/27
f 19/39/31 13/29/25 15/15/27
f 20/17/32 21/38/33 31/36/34 30/27/35
f 21/38/36 20/17/37 22/19/38 23/28/39
f 23/28/40 22/19/41 24/21/42 25/30/43
f 25/30/44 24/21/45 26/23/46 27/32/47
f 27/32/48 26/23/49 28/25/50 29/34/51
f 29/34/52 28/25/53 30/27/54 31/36/55
f 7/26/56 8/16/57 22/19/38 20/17/37
f 8/16/58 9/18/59 24/21/42 22/19/41
f 9/18/60 10/20/61 26/23/46 24/21/45
f 10/20/62 11/22/63 28/25/50 26/23/49
f 11/22/64 12/24/65 30/27/54 28/25/53
f 12/24/66 7/26/67 20/17/32 30/27/35
f 21/38/36 23/28/39 14/31/68 13/29/69
f 23/28/40 25/30/43 16/33/70 14/31/71
f 25/30/44 27/32/47 17/35/72 16/33/73
f 27/32/48 29/34/51 18/37/74 17/35/75
f 29/34/52 31/36/55 19/39/76 18/37/77
f 31/36/34 21/38/33 13/29/78 19/39/79
